<?xml version="1.0" standalone="no"?>
<!DOCTYPE svg PUBLIC "-//W3C//DTD SVG 20010904//EN"
 "http://www.w3.org/TR/2001/REC-SVG-20010904/DTD/svg10.dtd">
<svg version="1.0" xmlns="http://www.w3.org/2000/svg"
 width="506.000000pt" height="359.000000pt" viewBox="0 0 506.000000 359.000000"
 preserveAspectRatio="xMidYMid meet">

<g transform="translate(0.000000,359.000000) scale(0.100000,-0.100000)"
fill="#000000" stroke="none">
<path d="M2510 3015 c120 -70 316 -200 326 -216 10 -17 -7 -9 -59 29 -87 64
-197 132 -303 189 l-102 53 -52 -57 c-59 -64 -192 -234 -188 -239 2 -1 93 1
203 5 203 7 509 6 535 -2 8 -3 71 -10 140 -17 69 -6 177 -20 240 -30 124 -21
130 -19 130 33 0 71 -320 236 -566 292 -40 10 -141 18 -244 21 l-175 6 115
-67z"/>
<path d="M2242 3054 c-106 -23 -240 -72 -346 -126 -97 -50 -266 -169 -314
-220 l-23 -25 122 24 c67 13 189 32 273 43 150 19 151 19 176 52 20 26 114
145 202 256 13 15 -6 15 -90 -4z"/>
<path d="M2193 2763 l-72 -4 -34 -47 c-89 -124 -216 -357 -286 -525 -39 -94
-39 -96 -20 -113 10 -9 21 -15 22 -13 2 2 21 33 42 69 51 85 172 204 261 258
278 167 605 159 876 -22 57 -37 157 -133 187 -179 16 -25 19 -26 24 -10 3 10
24 61 47 113 l42 95 -129 125 c-70 69 -164 154 -208 190 l-80 65 -300 1 c-165
1 -332 -1 -372 -3z"/>
<path d="M2900 2757 c0 -2 44 -40 98 -85 53 -44 137 -122 187 -171 49 -50 93
-91 96 -91 9 0 41 98 67 202 18 71 18 78 3 82 -39 12 -196 37 -316 51 -149 17
-135 16 -135 12z"/>
<path d="M3406 2753 c-3 -3 -6 -16 -6 -28 0 -19 8 -24 51 -32 l50 -10 -28 29
c-33 35 -58 50 -67 41z"/>
<path d="M1905 2730 c-115 -18 -258 -47 -342 -69 -28 -8 -52 -25 -82 -61 l-42
-50 32 -58 c50 -88 153 -237 217 -313 31 -37 57 -67 58 -66 0 1 25 54 54 117
63 139 141 281 227 413 35 54 63 100 63 102 0 9 -64 3 -185 -15z"/>
<path d="M3380 2639 c-7 -24 -27 -91 -45 -148 l-34 -104 68 -81 c115 -138 205
-265 250 -354 26 -50 26 -52 3 -52 -12 0 -28 22 -51 68 -63 128 -264 404 -281
385 -7 -9 -75 -175 -85 -210 -3 -13 -2 -23 3 -23 14 0 58 -89 81 -165 12 -38
27 -72 33 -76 13 -8 21 -7 -172 -44 -179 -34 -370 -85 -508 -133 l-112 -40
-112 40 c-139 49 -330 99 -508 133 -185 35 -185 36 -173 43 5 4 13 23 17 43 3
19 15 52 25 72 18 36 18 36 -4 57 l-23 22 -33 -101 c-20 -62 -38 -101 -47
-101 -16 0 -14 7 33 131 l32 87 -54 63 c-65 75 -196 256 -236 325 l-29 48 -45
-70 c-88 -136 -164 -322 -193 -472 l-13 -62 -137 0 c-117 0 -139 -2 -144 -16
-9 -23 -7 -1517 2 -1530 4 -7 68 -13 167 -17 168 -6 357 -31 563 -73 244 -50
602 -144 820 -215 l92 -31 93 31 c217 71 575 165 819 215 206 42 395 67 563
73 99 4 163 10 167 17 9 13 11 1507 2 1530 -5 14 -27 16 -143 16 l-137 0 -23
100 c-46 196 -141 391 -269 551 -65 81 -79 90 -174 105 -36 6 -37 6 -48 -37z
m-1915 -794 c375 -36 703 -104 954 -195 l111 -41 111 41 c332 121 807 200
1302 217 l187 6 0 -730 0 -730 -137 -6 c-316 -15 -774 -108 -1285 -262 l-178
-54 -178 54 c-511 154 -969 247 -1284 262 l-138 6 0 730 0 730 188 -6 c103 -4
259 -13 347 -22z"/>
<path d="M1270 1328 l0 -138 145 0 145 0 0 134 0 135 -145 3 -145 3 0 -137z"/>
<path d="M2810 1328 l0 -138 470 0 471 0 -17 33 c-45 89 -140 168 -249 209
-56 21 -80 23 -368 28 l-307 5 0 -137z"/>
<path d="M1950 1325 l0 -135 150 0 150 0 0 135 0 135 -150 0 -150 0 0 -135z"/>
<path d="M2380 1325 l0 -135 150 0 150 0 0 135 0 135 -150 0 -150 0 0 -135z"/>
<path d="M1272 988 c3 -107 9 -144 27 -190 49 -125 142 -216 276 -269 58 -23
72 -24 368 -27 l307 -3 0 311 0 311 -147 -3 -148 -3 -3 -147 -3 -148 -127 0
c-148 0 -188 9 -228 51 -28 29 -29 34 -32 140 l-4 109 -145 0 -145 0 4 -132z"/>
<path d="M2380 810 l0 -310 150 0 150 0 0 310 0 310 -150 0 -150 0 0 -310z"/>
<path d="M2810 810 l0 -310 150 0 150 0 -2 308 -3 307 -147 3 -148 3 0 -311z"/>
<path d="M3459 1099 c12 -11 26 -32 32 -46 5 -13 9 -143 9 -289 l0 -264 145 0
145 0 0 279 c0 153 -3 293 -6 310 l-6 31 -171 0 -171 0 23 -21z"/>
</g>
</svg>
